<svg id="Шар_4" data-name="Шар 4" xmlns="http://www.w3.org/2000/svg" viewBox="0 0 30.66 32.59"><defs><style>.cls-1{fill:#64cbc0;fill-rule:evenodd;}</style></defs><title>icon</title><path class="cls-1" d="M457.3,36.43l-1-1.92L437,44.85a3.66,3.66,0,0,0-1.5,4.94l1,1.92L455.8,41.37A3.66,3.66,0,0,0,457.3,36.43Z" transform="translate(-435.04 -34.52)"/><path class="cls-1" d="M438.54,56l-1-1.91,19.26-10.43a3.66,3.66,0,0,1,4.95,1.47l1,1.89h0l1.5,2.88,1,1.92a3.66,3.66,0,0,1-1.49,4.94l-19.3,10.35-1-1.92a3.66,3.66,0,0,1,1.49-4.94l12.83-6.88a1.64,1.64,0,0,0-1.69-2.72h0l-12.59,6.82A3.66,3.66,0,0,1,438.54,56Z" transform="translate(-435.04 -34.52)"/></svg>