<svg id="Шар_4" data-name="Шар 4" xmlns="http://www.w3.org/2000/svg" viewBox="0 0 149.93 32.59"><defs><style>.cls-1{fill:#fff;fill-rule:evenodd;}</style></defs><title>logo</title><path class="cls-1" d="M47.3,12.77l-1-1.92L27,21.18a3.66,3.66,0,0,0-1.5,4.94l1,1.92L45.8,17.7A3.66,3.66,0,0,0,47.3,12.77Z" transform="translate(-25.04 -10.85)"/><path class="cls-1" d="M28.54,32.34l-1-1.91L46.76,20a3.66,3.66,0,0,1,4.95,1.47l1,1.89h0l1.5,2.88,1,1.92a3.66,3.66,0,0,1-1.49,4.94L34.47,43.44l-1-1.92a3.66,3.66,0,0,1,1.49-4.94L47.77,29.7A1.64,1.64,0,0,0,46.08,27h0L33.49,33.81A3.66,3.66,0,0,1,28.54,32.34Z" transform="translate(-25.04 -10.85)"/><path class="cls-1" d="M66.35,28.94a3.28,3.28,0,0,1-.53,1.82A3.45,3.45,0,0,1,64.29,32a5.75,5.75,0,0,1-2.39.46,5.41,5.41,0,0,1-2.74-.62,3.64,3.64,0,0,1-1.24-1.2,2.72,2.72,0,0,1-.48-1.46,1,1,0,0,1,.29-.71,1,1,0,0,1,.73-.29.85.85,0,0,1,.61.23,1.79,1.79,0,0,1,.42.68A4.48,4.48,0,0,0,60,30a1.9,1.9,0,0,0,.7.59,2.61,2.61,0,0,0,1.19.23,2.68,2.68,0,0,0,1.64-.47,1.42,1.42,0,0,0,.63-1.17,1.23,1.23,0,0,0-.34-.91,2.22,2.22,0,0,0-.88-.53c-.36-.12-.84-.25-1.44-.39a10.63,10.63,0,0,1-2-.66,3.27,3.27,0,0,1-1.29-1A2.67,2.67,0,0,1,57.66,24a2.8,2.8,0,0,1,.5-1.64,3.21,3.21,0,0,1,1.46-1.1,6,6,0,0,1,2.25-.39,5.6,5.6,0,0,1,1.78.26,3.83,3.83,0,0,1,1.25.68,2.9,2.9,0,0,1,.72.89,2.07,2.07,0,0,1,.23.91,1.09,1.09,0,0,1-.29.73.91.91,0,0,1-.71.32.83.83,0,0,1-.59-.19,2.63,2.63,0,0,1-.44-.64,2.9,2.9,0,0,0-.73-1,2.15,2.15,0,0,0-1.38-.36,2.37,2.37,0,0,0-1.42.39,1.12,1.12,0,0,0-.54.93.94.94,0,0,0,.18.58,1.54,1.54,0,0,0,.51.42,3.5,3.5,0,0,0,.65.28l1.08.29a17.12,17.12,0,0,1,1.72.49,5.21,5.21,0,0,1,1.31.65,2.66,2.66,0,0,1,.84,1,3.13,3.13,0,0,1,.3,1.44Zm4.21-6.66v3.93L75,21.56a4.12,4.12,0,0,1,.54-.5,1,1,0,0,1,.6-.16,1.11,1.11,0,0,1,.79.29.93.93,0,0,1,.3.7,1.39,1.39,0,0,1-.51,1L74,25.49,77.16,30a5.88,5.88,0,0,1,.51.83,1.6,1.6,0,0,1,.17.69.87.87,0,0,1-.3.65,1.13,1.13,0,0,1-.8.27,1.33,1.33,0,0,1-.77-.2,1.7,1.7,0,0,1-.5-.54l-.37-.61L72.42,27l-1.86,1.78v2.32a1.48,1.48,0,0,1-.32,1,1.08,1.08,0,0,1-.82.34,1.11,1.11,0,0,1-.56-.15,1.05,1.05,0,0,1-.41-.41,1.3,1.3,0,0,1-.13-.5c0-.19,0-.46,0-.82V22.28a1.53,1.53,0,0,1,.3-1,1,1,0,0,1,.82-.34,1.08,1.08,0,0,1,.83.34,1.48,1.48,0,0,1,.32,1Zm11.81,8.82V27.56l-2.74-4.24a8.87,8.87,0,0,1-.51-.9,1.38,1.38,0,0,1-.15-.56.9.9,0,0,1,.3-.67,1,1,0,0,1,.75-.28.92.92,0,0,1,.71.26,8.17,8.17,0,0,1,.72,1l2.09,3.4,2.12-3.4.32-.53a3.31,3.31,0,0,1,.29-.4,1.11,1.11,0,0,1,.35-.29,1,1,0,0,1,.47-.1,1,1,0,0,1,.71.28.87.87,0,0,1,.29.64,1.34,1.34,0,0,1-.14.6,7.34,7.34,0,0,1-.5.82l-2.8,4.3v3.55a1.47,1.47,0,0,1-.32,1,1.07,1.07,0,0,1-.82.34,1.05,1.05,0,0,1-.82-.34A1.5,1.5,0,0,1,82.37,31.11Z" transform="translate(-25.04 -10.85)"/><path class="cls-1" d="M89.66,27.67V22.28a1.49,1.49,0,0,1,.31-1,1,1,0,0,1,.81-.34,1.07,1.07,0,0,1,.84.34,1.51,1.51,0,0,1,.31,1v5.51a5.05,5.05,0,0,0,.21,1.57,1.82,1.82,0,0,0,.74,1,2.74,2.74,0,0,0,1.5.35A2.25,2.25,0,0,0,96.27,30a3.46,3.46,0,0,0,.55-2.14V22.28a1.51,1.51,0,0,1,.31-1,1,1,0,0,1,.82-.34,1.08,1.08,0,0,1,.83.34,1.48,1.48,0,0,1,.32,1v5.39a8,8,0,0,1-.26,2.19,3.39,3.39,0,0,1-1,1.54,3.79,3.79,0,0,1-1.42.83,6.27,6.27,0,0,1-1.89.26,7.86,7.86,0,0,1-2.23-.28,3.57,3.57,0,0,1-1.52-.86,3.48,3.48,0,0,1-.87-1.5,7.61,7.61,0,0,1-.28-2.18Zm16.23.27h-2.08v3.17a1.47,1.47,0,0,1-.32,1,1,1,0,0,1-.81.35,1.06,1.06,0,0,1-.83-.35,1.48,1.48,0,0,1-.31-1V22.48a1.41,1.41,0,0,1,.34-1.07A1.56,1.56,0,0,1,103,21.1h2.91a7.61,7.61,0,0,1,2,.2,3,3,0,0,1,1.19.63,2.88,2.88,0,0,1,.76,1.08,3.81,3.81,0,0,1,.26,1.45,3.2,3.2,0,0,1-1.05,2.6,4.81,4.81,0,0,1-3.14.88Zm-.55-5.13h-1.53v3.43h1.53a4.55,4.55,0,0,0,1.34-.17,1.56,1.56,0,0,0,.82-.55,1.64,1.64,0,0,0,.28-1,1.7,1.7,0,0,0-.43-1.21A2.9,2.9,0,0,0,105.34,22.8Z" transform="translate(-25.04 -10.85)"/><path class="cls-1" d="M124.41,28.93a3.29,3.29,0,0,1-.52,1.82A3.47,3.47,0,0,1,122.36,32a5.76,5.76,0,0,1-2.39.46,5.42,5.42,0,0,1-2.74-.62,3.65,3.65,0,0,1-1.24-1.2,2.73,2.73,0,0,1-.48-1.46,1,1,0,0,1,.29-.71,1,1,0,0,1,.73-.29.85.85,0,0,1,.61.23,1.77,1.77,0,0,1,.42.68A4.53,4.53,0,0,0,118,30a1.91,1.91,0,0,0,.7.6,2.62,2.62,0,0,0,1.19.23,2.67,2.67,0,0,0,1.64-.47,1.41,1.41,0,0,0,.63-1.17,1.23,1.23,0,0,0-.34-.91,2.18,2.18,0,0,0-.88-.53c-.36-.12-.84-.25-1.44-.39a10.6,10.6,0,0,1-2-.66,3.29,3.29,0,0,1-1.29-1,2.68,2.68,0,0,1-.48-1.63,2.79,2.79,0,0,1,.5-1.64,3.2,3.2,0,0,1,1.46-1.1,5.94,5.94,0,0,1,2.25-.39,5.6,5.6,0,0,1,1.79.25,3.85,3.85,0,0,1,1.25.68,2.89,2.89,0,0,1,.73.89,2.09,2.09,0,0,1,.23.91,1.08,1.08,0,0,1-.29.73.91.91,0,0,1-.71.32.83.83,0,0,1-.59-.19,2.58,2.58,0,0,1-.44-.64,2.92,2.92,0,0,0-.74-1,2.14,2.14,0,0,0-1.38-.36,2.37,2.37,0,0,0-1.42.39,1.13,1.13,0,0,0-.54.93.93.93,0,0,0,.18.58,1.55,1.55,0,0,0,.51.42,3.48,3.48,0,0,0,.65.28l1.09.29a16.92,16.92,0,0,1,1.72.49,5.26,5.26,0,0,1,1.31.65,2.67,2.67,0,0,1,.84,1,3.12,3.12,0,0,1,.3,1.43Zm9.21-6h-2.48v8.14a1.49,1.49,0,0,1-.31,1,1.05,1.05,0,0,1-.81.34,1.07,1.07,0,0,1-.82-.34,1.48,1.48,0,0,1-.32-1V23H126.4a1.25,1.25,0,0,1-.86-.25.88.88,0,0,1-.28-.68.86.86,0,0,1,.29-.69,1.27,1.27,0,0,1,.85-.25h7.22a1.27,1.27,0,0,1,.88.26.89.89,0,0,1,.29.68.87.87,0,0,1-.29.68,1.29,1.29,0,0,1-.87.25Zm2.52,4.7V22.27a1.5,1.5,0,0,1,.31-1,1,1,0,0,1,.81-.34,1.07,1.07,0,0,1,.83.34,1.5,1.5,0,0,1,.31,1v5.51a5.05,5.05,0,0,0,.21,1.57,1.83,1.83,0,0,0,.74,1,2.74,2.74,0,0,0,1.5.35,2.24,2.24,0,0,0,1.88-.71,3.47,3.47,0,0,0,.55-2.14V22.27a1.52,1.52,0,0,1,.3-1,1,1,0,0,1,.82-.34,1.08,1.08,0,0,1,.83.34,1.47,1.47,0,0,1,.32,1v5.39a8,8,0,0,1-.26,2.19,3.39,3.39,0,0,1-1,1.54,3.81,3.81,0,0,1-1.42.82,6.28,6.28,0,0,1-1.9.26,7.9,7.9,0,0,1-2.23-.28,3.58,3.58,0,0,1-1.52-.86,3.5,3.5,0,0,1-.87-1.5,7.68,7.68,0,0,1-.27-2.18Zm13.29-6.58h3a8,8,0,0,1,2,.21,3.66,3.66,0,0,1,1.5.8,5.68,5.68,0,0,1,1.75,4.56,8.93,8.93,0,0,1-.18,1.84,5.52,5.52,0,0,1-.54,1.5,4.66,4.66,0,0,1-.94,1.2,3.84,3.84,0,0,1-1,.65,4.38,4.38,0,0,1-1.15.35,9,9,0,0,1-1.39.1h-3a1.86,1.86,0,0,1-.93-.19.86.86,0,0,1-.41-.53,3.37,3.37,0,0,1-.09-.88V22.47a1.19,1.19,0,0,1,1.39-1.39Zm.88,1.8v7.61H152c.38,0,.67,0,.89,0a2.75,2.75,0,0,0,.67-.15,1.82,1.82,0,0,0,.59-.34,4.15,4.15,0,0,0,1.14-3.32,4.89,4.89,0,0,0-.5-2.49,2.24,2.24,0,0,0-1.23-1.05,6.13,6.13,0,0,0-1.77-.22Zm9.39,8.21V22.27a1.49,1.49,0,0,1,.31-1,1,1,0,0,1,.81-.34,1.08,1.08,0,0,1,.83.34,1.47,1.47,0,0,1,.32,1v8.83a1.48,1.48,0,0,1-.32,1,1.08,1.08,0,0,1-.83.34,1,1,0,0,1-.81-.35,1.5,1.5,0,0,1-.32-1Zm9.74-10.2a6,6,0,0,1,3,.71,4.56,4.56,0,0,1,1.89,2,6.83,6.83,0,0,1,.64,3.06,7.47,7.47,0,0,1-.35,2.36,5.1,5.1,0,0,1-1.05,1.84,4.62,4.62,0,0,1-1.73,1.19,6.24,6.24,0,0,1-2.34.41,6.13,6.13,0,0,1-2.35-.42,4.66,4.66,0,0,1-1.74-1.2A5.11,5.11,0,0,1,164.34,29a7.5,7.5,0,0,1-.36-2.35,7.22,7.22,0,0,1,.37-2.37,5.11,5.11,0,0,1,1.07-1.84,4.63,4.63,0,0,1,1.71-1.16,6.12,6.12,0,0,1,2.29-.4Zm3.23,5.76a5.3,5.3,0,0,0-.4-2.13,3,3,0,0,0-1.13-1.36,3.12,3.12,0,0,0-1.69-.46,3.06,3.06,0,0,0-1.25.26,2.77,2.77,0,0,0-1,.75,3.62,3.62,0,0,0-.66,1.25,5.74,5.74,0,0,0-.24,1.71,5.88,5.88,0,0,0,.24,1.73,3.55,3.55,0,0,0,.68,1.28,2.81,2.81,0,0,0,1,.76,3,3,0,0,0,1.25.25,3.08,3.08,0,0,0,1.6-.44,3,3,0,0,0,1.16-1.35A5.22,5.22,0,0,0,172.66,26.65Z" transform="translate(-25.04 -10.85)"/></svg>